<svg version="1.1" xmlns="http://www.w3.org/2000/svg" xmlns:xlink="http://www.w3.org/1999/xlink" width="117.12591" height="118.88208" viewBox="0,0,117.12591,118.88208"><g transform="translate(-175.13409,-141.40336)"><g data-paper-data="{&quot;isPaintingLayer&quot;:true}" fill-rule="nonzero" stroke-linecap="butt" stroke-linejoin="miter" stroke-miterlimit="10" stroke-dasharray="" stroke-dashoffset="0" style="mix-blend-mode: normal"><path d="M269.75134,199.53989c3.9631,1.65698 12.22222,19.83333 12.22222,19.83333c0,0 4.098,0.45494 5.79381,1.87256c0.60859,0.50875 2.93732,5.0907 3.03635,6.94876c0.099,1.85753 1.30111,5.24124 0.85897,6.11813c-0.92401,1.83261 -2.26529,2.72995 -3.94923,1.1482c-1.41906,-1.33295 -0.35816,-1.45685 -1.28798,-4.22306c-0.79811,-2.37439 -1.16657,-2.93584 -1.16657,-2.93584c0,0 -1.86468,-1.03795 -2.91332,-0.69279c-0.78887,0.20984 -3.01509,-2.04638 -3.38314,-0.07405c-0.37432,2.00596 3.06781,8.16734 -1.21497,7.37776c-3.15891,-0.58238 -8.90199,-15.80154 -10.02954,-18.53459c-1.00317,-2.43156 -2.3641,-7.19323 -4.41104,-7.78285c-4.62888,-1.33334 -14.62225,-8.26125 -14.33334,-11.22223c0.41896,-4.29369 16.26001,0.27778 20.77778,2.16667z" data-paper-data="{&quot;index&quot;:null}" fill="#ffbfbf" stroke="#000000" stroke-width="1"/><path d="M217.46666,196.20656c0.28892,2.96097 -9.70445,10.38889 -14.33333,11.72222c-2.04694,0.58962 -4.3532,6.24397 -7.91104,10.61618c-0.46088,0.56638 -5.20397,15.11888 -8.36288,15.70126c-4.28279,0.78958 -1.67269,-4.14151 -1.71498,-6.2111c-0.04099,-2.00596 -1.09427,-0.71611 -1.88314,-0.92595c-1.04863,-0.34516 -1.74665,-0.97387 -1.74665,-0.97387c0,0 -0.80326,0.72801 -1.33324,2.10251c-0.54002,1.40052 2.1867,0.78433 2.04536,1.55639c-0.35061,1.91509 -1.59552,3.27909 -2.78257,2.8518c-0.92401,-0.33261 -3.9067,-3.7606 -3.80769,-5.61813c0.09903,-1.85806 2.42776,-6.44001 3.03635,-6.94876c1.69582,-1.41762 5.79381,-1.87256 5.79381,-1.87256c0,0 8.25912,-18.17635 12.22222,-19.83333c4.51777,-1.88889 20.35882,-6.46036 20.77778,-2.16667z" fill="#ffbfbf" stroke="#000000" stroke-width="1"/><path d="M251.79999,218.76211c0,0 -14.44212,3.16667 -22.38889,3.16667c-7.94676,0 -22.27778,-2.16667 -22.27778,-2.16667c0,0 3.03005,-12.66918 10.00759,-22.60578c4.89997,-6.97797 13.55032,-4.15933 29.93685,-4.22755c6.46113,-0.02689 -0.08917,13.19098 0.11207,16.52885c0.18187,3.01664 4.61015,9.30449 4.61015,9.30449z" fill="#e5e5e5" stroke="#000000" stroke-width="1"/><path d="M249.66111,197.651c0,0 -1.85541,7.91666 -3.25,11.25c-1.00534,2.40294 -25.73891,4.64359 -33.52124,0.53123c-3.35564,-1.77319 4.43791,-11.07352 4.43791,-11.4479c0,-1.24264 16.18875,1.08334 19.91667,1.08334c3.72792,0 12.41667,-1.41667 12.41667,-1.41667z" fill="#cccccc" stroke="none" stroke-width="0"/><path d="M210.70002,195.27778c-5.28632,-2.11881 -11.53494,-34.87984 -7.9355,-40.59524c8.89938,-14.13093 44.06192,-18.35165 65.44116,-5.92449c5.50299,3.19874 4.02541,44.52148 1.51526,45.15755c-14.34327,3.63459 -37.5729,9.95874 -59.02092,1.36217z" fill="#000000" stroke="none" stroke-width="0"/><path d="M268.92857,187.59524c0.14285,6.52561 -15.42072,9.71429 -32.85714,9.71429c-17.43642,0 -25.71428,-1.33154 -26.28571,-8c-1.1182,-13.04922 -0.15035,-39.9112 26,-39.71429c25.29331,0.19046 32.8562,24.9061 33.14285,38z" fill="#656565" stroke="none" stroke-width="0"/><path d="M267.37842,184.32307c0,6.98427 -12.4987,10.75761 -27.56418,10.75761c-15.06548,0 -26.99275,-4.20191 -26.99275,-10.32904c0,-6.12713 -0.631,-18.6893 -0.631,-18.6893l43.5225,-0.42872l1.96206,11.63263c0,0 9.70337,3.35827 9.70337,7.05682z" fill="#000000" stroke="none" stroke-width="0"/><path d="M266.33333,184.1475c0,5.97705 -11.78983,10.07604 -26.33333,10.07604c-14.5435,0 -26.33334,-4.09899 -26.33334,-10.07604c0,-5.97705 -0.33333,-17.95281 -0.33333,-17.95281l41.46293,-0.41822l2.1699,12.32321c0,0 9.36717,2.85793 9.36717,6.04782z" fill="#ffbfbf" stroke="none" stroke-width="0"/><path d="M213.5,169c-4.90385,5.85841 2.67699,24.83334 -1.83334,24.83334c-4.51032,0 -10.95021,-32.68823 -7.5,-38.16667c8.53042,-13.54507 42.12866,-18.33634 62.62154,-6.4244c5.27485,3.06612 3.35784,43.80799 1.87847,43.9244c-8.47218,0.66666 -3.07312,-25.17091 -15.43174,-26.26866c-14.35988,-1.18992 -37.16766,-0.965 -39.73493,2.10199z" fill="#808080" stroke="none" stroke-width="0"/><path d="M229.78571,176.95238c0,0.74953 -0.57563,1.35714 -1.28571,1.35714c-0.71008,0 -1.28572,-0.60761 -1.28572,-1.35714c0,-0.74953 0.57564,-1.35715 1.28572,-1.35715c0.71008,0 1.28571,0.60762 1.28571,1.35715z" fill="#000000" stroke="none" stroke-width="0"/><path d="M251.78572,175.2381c0,0.74953 -0.57564,1.35714 -1.28572,1.35714c-0.71008,0 -1.28572,-0.60761 -1.28572,-1.35714c0,-0.74953 0.57564,-1.35715 1.28572,-1.35715c0.71008,0 1.28572,0.60762 1.28572,1.35715z" fill="#000000" stroke="none" stroke-width="0"/><path d="M252.88511,169.11697c0.33541,0.67082 -0.33541,1.00623 -0.33541,1.00623l-0.34259,0.1684c-2.62419,1.04968 -5.36846,2.423 -8.15524,2.90058c0,0 -0.7398,0.1233 -0.8631,-0.61649c-0.1233,-0.73979 0.6165,-0.8631 0.6165,-0.8631c2.66782,-0.42954 5.33601,-1.8102 7.84475,-2.8137l0.22885,-0.11732c0,0 0.67082,-0.33541 1.00623,0.33541z" fill="#000000" stroke="none" stroke-width="0.5"/><path d="M225.51793,169.3167c0.27855,-0.69636 0.9749,-0.41782 0.9749,-0.41782l0.71428,0.28572c2.30544,0.92334 4.31592,2.39234 6.57143,3.28572c0,0 0.69636,0.27854 0.41781,0.9749c-0.27855,0.69636 -0.9749,0.41781 -0.9749,0.41781c-2.26621,-0.91409 -4.25591,-2.3606 -6.57143,-3.28571l-0.71428,-0.28572c0,0 -0.69636,-0.27854 -0.41781,-0.9749z" fill="#000000" stroke="none" stroke-width="0.5"/><path d="M250.2347,185.60335c0.13772,0.60839 -0.41318,0.76049 -0.41318,0.76049l-0.27822,0.04881c-2.65271,1.73824 -5.8298,3.07564 -8.94541,3.07564c-4.1574,0 -8.38979,0.14912 -11.54259,-3.2894c0,0 -0.40154,-0.44344 0,-0.88688c0.40154,-0.44344 0.80308,0 0.80308,0c2.85238,3.19979 6.95331,2.92205 10.73951,2.92205c2.88658,0 5.91476,-1.25399 8.36108,-2.89691l0.5871,-0.19009c0,0 0.55092,-0.1521 0.68864,0.45629z" fill="#000000" stroke="none" stroke-width="0.5"/><path d="M212.35715,180.59524c-0.06273,-1.12909 -0.42754,-7.95468 2.29161,-10.85161c1.19908,-1.27748 12.59839,-2.09071 20.71027,-2.54317c4.90377,-0.27352 18.67352,-0.67809 20.99089,0.81967c3.02807,1.95709 5.87568,15.72949 8.69108,22.84309c1.50104,3.79265 1.2395,2.36181 1.51042,1.86456c0.54251,-0.99571 -3.16904,-11.435 -5.24356,-17.16641c-2.15708,-5.95952 -3.84945,-8.73672 -5.95015,-9.12854c-6.25169,-1.16607 -17.56564,-0.20179 -22.83264,-0.20867c-14.06485,-0.01837 -19.78247,2.44562 -20.0965,2.65679c-0.68745,0.46228 -1.35714,6.47527 -1.35714,9c0,2.52473 -0.47128,16.14286 0.35714,16.14286c1.39986,0 1.09155,-10.49484 0.92857,-13.42857z" fill="#000000" stroke="none" stroke-width="0"/><path d="M265.10715,187.7381c0,0.75 -0.75,0.75 -0.75,0.75l-0.26616,-0.0102c-2.41413,-0.41021 -4.42926,1.33904 -6.71177,1.99184c-0.81374,0.13446 -1.62608,0.25653 -2.43742,0.36735c-0.24664,1.1967 -0.50792,2.3903 -0.702,3.59574l-0.05377,0.26958c1.30344,-0.23924 2.59753,-0.71085 3.87554,-0.98431c2.78483,-0.59588 5.80196,-0.59478 8.44561,-1.67636l0.4214,-0.05365c0,0 0.75,0 0.75,0.75c0,0.75 -0.75,0.75 -0.75,0.75l0.13569,-0.05364c-2.75921,1.08385 -5.80871,1.13228 -8.69725,1.75221c-1.80484,0.38735 -3.63923,1.15295 -5.48966,1.15295c-8.03897,2.05366 -15.28147,2.39862 -23.49845,1.28968c-0.1414,0.00005 -0.28435,0.00005 -0.42876,-0.00006c-0.07668,0.01468 -0.16273,0.0164 -0.25892,-0.00033c-5.51863,-0.00996 -13.02359,-0.23396 -17.00726,-4.21764c0,0 -0.53033,-0.53033 0,-1.06066c0.53033,-0.53033 1.06066,0 1.06066,0c1.70784,1.70784 4.19026,2.64433 6.87182,3.15789l0.00091,-0.03657c0.21089,-1.24632 0.38491,-2.44128 0.51919,-3.62898c-2.70102,-0.23317 -5.33486,-0.7227 -7.77222,-1.69422c0,0 -0.69636,-0.27854 -0.41782,-0.9749c0.27855,-0.69636 0.9749,-0.41782 0.9749,-0.41782c2.29809,0.92281 4.79483,1.39088 7.36114,1.61409c0.1012,-1.19234 0.16127,-2.3957 0.17735,-3.65454c-3.26629,-0.20804 -6.38123,-0.82724 -8.71413,-2.67754c0,0 -0.58565,-0.46853 -0.11713,-1.05418c0.46852,-0.58565 1.05417,-0.11713 1.05417,-0.11713c1.45624,1.17696 2.96764,1.30067 4.77882,1.55725c1.00673,0.14262 2.01206,0.24985 3.0164,0.33592c0.0365,-1.86018 0.13141,-3.86393 0.10629,-5.87417c-0.70972,-0.03201 -1.41987,-0.06952 -2.13092,-0.11337c-2.55812,-0.15773 -5.68033,-0.33317 -7.62658,-2.21822c0,0 -0.53033,-0.53033 0,-1.06066c0.53033,-0.53033 1.06066,0 1.06066,0c1.55219,1.62625 4.58163,1.65027 6.65913,1.78178c0.66528,0.04211 1.32975,0.07824 1.99383,0.10916c-0.16642,-3.47559 -0.82713,-6.86811 -2.9118,-9.46352c0,0 -0.46852,-0.58565 0.11713,-1.05417c0.58565,-0.46852 1.05417,0.11713 1.05417,0.11713c2.3244,2.91595 3.03201,6.65139 3.208,10.46079c2.58627,0.09239 5.17096,0.11488 7.77778,0.11488c0.47761,0 0.95451,-0.00047 1.43075,-0.00155c-0.11887,-4.04611 -0.8388,-8.1585 -2.6453,-11.1483c0,0 -0.38587,-0.64312 0.25725,-1.02899c0.64312,-0.38587 1.02899,0.25725 1.02899,0.25725c1.93146,3.23877 2.71803,7.61539 2.85011,11.91448c3.53753,-0.0188 7.04272,-0.08033 10.54259,-0.24645c-0.05901,-1.03346 -0.13398,-2.06344 -0.2125,-3.08614c-0.19997,-2.6044 -0.23807,-5.56965 -2.21078,-7.52284c0,0 -0.53033,-0.53033 0,-1.06066c0.53033,-0.53033 1.06066,0 1.06066,0c2.4725,2.49304 3.18002,7.09865 3.23292,11.57054c2.89525,-0.16993 5.79015,-0.41904 8.69999,-0.78236c0.06135,-0.01024 0.12257,-0.02052 0.18365,-0.03086c-0.03143,-0.72489 -0.0677,-1.44951 -0.10929,-2.17382c-0.14721,-2.56364 -1.27728,-4.99976 -1.70597,-7.5013c0,0 -0.1233,-0.73979 0.6165,-0.86309c0.73979,-0.1233 0.86309,0.61649 0.86309,0.61649c0.41182,2.55776 1.56489,5.01969 1.72261,7.64156c0.04027,0.66933 0.0754,1.3391 0.10594,2.00924c1.80984,-0.35476 3.52945,-0.80296 5.29597,-1.50957l0.46994,-0.15801c0,0 0.71151,-0.23717 0.94868,0.47434c0.23717,0.71151 -0.47434,0.94868 -0.47434,0.94868l-0.3872,0.1277c-1.92656,0.77062 -3.80702,1.25219 -5.79162,1.63219c0.05293,1.48407 0.08533,2.96961 0.10295,4.45566c2.19131,-0.36522 4.37407,-0.72901 6.57254,-1.09543l0.83759,-0.01021c0,0 0.75,0 0.75,0.75c0,0.75 -0.75,0.75 -0.75,0.75l-0.59099,-0.0102c-2.27745,0.37957 -4.53638,0.75607 -6.80605,1.13434c0.00287,0.51813 0.00418,1.03628 0.00418,1.55443c-0.0029,1.40061 -0.18631,2.76773 -0.43305,4.12275c0.60072,-0.0874 1.20195,-0.18155 1.80383,-0.28296c2.57432,-0.73463 4.50527,-2.46413 7.28823,-2.00815l0.01956,-0.01021c0,0 0.75,0 0.75,0.75zM233.42857,191.91667c-0.76908,0 -1.55116,0.01024 -2.34279,0.02469c-0.37008,1.40035 -0.80166,2.79349 -1.2756,4.23429c3.42093,0.43605 6.64205,0.61228 9.82212,0.52173c0.01407,-0.05893 0.02848,-0.09496 0.02848,-0.09496l0.28571,-0.71428c0.54782,-1.36955 1.07511,-2.70764 1.54723,-4.05386c-2.6732,0.06839 -5.35725,0.0824 -8.06516,0.0824zM233.42857,190.41667c2.8755,0 5.7262,-0.01066 8.56629,-0.08684c0.3108,-0.98968 0.58545,-1.99149 0.81052,-3.02078c-3.52579,0.41171 -7.54011,0.23608 -10.73589,-0.16685c-0.15879,1.12995 -0.36557,2.2202 -0.61191,3.29493c0.66613,-0.0123 1.32395,-0.02045 1.971,-0.02045zM252.19473,184.19218c-2.08113,0.3408 -3.74105,1.80207 -5.75682,2.40466c-0.64379,0.19245 -1.33258,0.35149 -2.05334,0.48072c-0.21968,1.0934 -0.49397,2.15563 -0.80877,3.20272c3.37992,-0.122 6.74852,-0.35146 10.12974,-0.78114c0.2713,-1.42476 0.47648,-2.86146 0.47303,-4.33247c0,-0.43493 -0.00106,-0.86979 -0.00327,-1.30459c-0.65851,0.10976 -1.31847,0.21974 -1.98057,0.3301zM241.33922,196.44521l-0.07278,0.18194c3.71922,-0.21385 7.41947,-0.79644 11.35699,-1.75899l0.13678,-0.68193c0.18066,-1.05418 0.4109,-2.10146 0.63306,-3.15087c-3.43805,0.41138 -6.86201,0.63303 -10.29963,0.75113c-0.52496,1.55152 -1.12553,3.08648 -1.75442,4.65873zM245.99066,185.16507c2.08209,-0.66373 3.77885,-2.08383 5.95747,-2.45248c0.74038,-0.12339 1.47826,-0.24638 2.21456,-0.36909c-0.0172,-1.48062 -0.04922,-2.96034 -0.10003,-4.43899c-0.00863,0.00144 -0.01726,0.00288 -0.0259,0.00432c-2.984,0.3734 -5.95258,0.6279 -8.92181,0.8004c-0.04533,2.487 -0.25886,4.85121 -0.44185,6.69066c-0.00562,0.03939 -0.01132,0.07874 -0.01709,0.11803c0.46653,-0.10135 0.91313,-0.21849 1.33464,-0.35286zM229.78572,179.05953c-2.59172,0 -5.16199,-0.02519 -7.73354,-0.11516c0.02927,2.02014 -0.05059,4.03362 -0.0786,5.92984c2.93204,0.20033 5.85752,0.28036 8.78695,0.59509c0.27299,-1.92287 0.46044,-4.13263 0.47336,-6.41138c-0.48205,0.00111 -0.96475,0.0016 -1.44817,0.0016zM221.09694,195.71854l0.00193,0.03073c2.44356,0.33146 4.96238,0.37604 7.1461,0.38224c0.47414,-1.42336 0.90693,-2.79014 1.28036,-4.15817c-2.59579,0.0562 -5.26782,0.1153 -7.89919,-0.0267c-0.13898,1.23628 -0.31747,2.47896 -0.5292,3.7719zM230.57904,186.96538c-2.60729,-0.23057 -5.63644,-0.0883 -8.62024,-0.18052c-0.01835,1.26692 -0.08231,2.48293 -0.18611,3.6885c2.71279,0.14322 5.47471,0.06189 8.13719,-0.00236c0.27185,-1.14211 0.49832,-2.29963 0.66916,-3.50562zM243.18404,185.21916c0.21346,-2.12277 0.22316,-4.27258 0.13894,-6.41548c-3.5174,0.16699 -7.04023,0.22942 -10.59517,0.24858c-0.00765,2.33295 -0.19405,4.60026 -0.47893,6.60291c3.16434,0.41003 7.35365,0.61604 10.84739,0.13562c0.03107,-0.1894 0.06036,-0.37992 0.08777,-0.57163z" fill="#cccccc" stroke="#000000" stroke-width="0.5"/><path d="M210.3254,192.70635c1.249,-0.48888 -6.82503,-26.57123 8.5,-30.30159c2.97179,-0.72338 48.5,-11.21429 48.5,-12.55555c0,-0.84832 -12.89999,-8.24149 -33.00038,-7.11623c-13.98853,0.7831 -24.75331,5.3154 -29.65835,11.94163c-4.46883,6.03695 2.51587,39.26191 5.65873,38.03174z" fill="#989898" stroke="none" stroke-width="0"/><path d="M226.70628,143.27927c2.82915,-0.28895 6.53816,-0.57271 6.53816,-0.57271l-29.87614,23.04126c0,0 -0.3522,-3.17656 -0.01275,-7.4857c0.41769,-5.30227 6.98839,-8.91942 6.98839,-8.91942c0,0 8.77696,-5.28872 16.36234,-6.06343z" fill="#b4b4b4" stroke="none" stroke-width="0"/><path d="M223.91111,143.81767l-20.66667,15.88889c0,0 -0.95891,-6.44725 7.22222,-10.77778c7.80767,-4.13285 13.44445,-5.11111 13.44445,-5.11111z" fill="#cccccc" stroke="none" stroke-width="0"/><path d="M251.79999,218.87323c0,0 0.08217,2.21654 0.47988,4.2571c0.29637,1.52061 4.00406,2.32715 4.00406,2.32715c0,0 0.46261,5.45584 1.44027,6.97267c1.06311,1.64941 3.89749,4.70424 3.89749,4.70424l-22.47842,1.42799c0,0 -1.28982,-1.70424 -1.87814,-4.42729c-0.24594,-1.13833 -1.89011,-1.95053 -1.89011,-1.95053c0,0 -1.32335,0.43119 -4.11407,0.37015c-2.60378,-0.05695 -3.67184,-0.62436 -3.67184,-0.62436c0,0 0.80507,2.40673 0.84795,3.60102c0.03788,1.055 0.32084,3.09902 0.32084,3.09902l-30.58364,-0.37605c0,0 3.88565,-1.72053 4.31137,-3.73953c0.41135,-1.95082 0.30229,-4.32939 0.30229,-4.32939c0,0 2.83799,-2.46082 3.12318,-4.0344c0.26946,-1.48683 1.44445,-6.5 1.44445,-6.5c0,0 15.98406,2.35933 22.44445,2.05555c10.57954,-0.49748 22,-2.83333 22,-2.83333z" fill="#1a1a1a" stroke="#000000" stroke-width="1"/><path d="M228.02222,236.87322c4.31271,-1.40448 3.63723,16.05556 -2.22222,19.83334c-4.17756,2.69341 -24.15149,7.05284 -29.33333,-4.61112c-2.29593,-5.16798 0.27758,-17.47535 4.55555,-14.94445c3.19278,1.88889 22.68729,1.1267 27,-0.27778z" fill="#4d4d4d" stroke="#000000" stroke-width="1"/><path d="M261.02222,235.87322c4.3369,-1.32792 16.63723,12.05556 10.77777,15.83334c-4.17757,2.69341 -21.95098,6.11333 -31.88888,-1.94445c-2.73739,-2.21952 -4.94464,-15.58645 -0.66667,-13.05555c3.19278,1.88889 16.46507,0.79337 21.77778,-0.83334z" fill="#4d4d4d" stroke="#000000" stroke-width="1"/></g></g></svg>