<?xml version="1.0" encoding="UTF-8" standalone="no"?>
<svg
   xmlns:dc="http://purl.org/dc/elements/1.1/"
   xmlns:cc="http://creativecommons.org/ns#"
   xmlns:rdf="http://www.w3.org/1999/02/22-rdf-syntax-ns#"
   xmlns:svg="http://www.w3.org/2000/svg"
   xmlns="http://www.w3.org/2000/svg"
   xmlns:sodipodi="http://sodipodi.sourceforge.net/DTD/sodipodi-0.dtd"
   xmlns:inkscape="http://www.inkscape.org/namespaces/inkscape"
   version="1.1"
   width="480"
   height="360"
   viewBox="0 0 479.99999 360"
   id="svg4136"
   inkscape:version="0.91 r13725"
   sodipodi:docname="Idle3.svg">
  <metadata
     id="metadata4194">
    <rdf:RDF>
      <cc:Work
         rdf:about="">
        <dc:format>image/svg+xml</dc:format>
        <dc:type
           rdf:resource="http://purl.org/dc/dcmitype/StillImage" />
        <dc:title></dc:title>
      </cc:Work>
    </rdf:RDF>
  </metadata>
  <defs
     id="defs4192" />
  <sodipodi:namedview
     pagecolor="#ffffff"
     bordercolor="#666666"
     borderopacity="1"
     objecttolerance="10"
     gridtolerance="10"
     guidetolerance="10"
     inkscape:pageopacity="0"
     inkscape:pageshadow="2"
     inkscape:window-width="1858"
     inkscape:window-height="1057"
     id="namedview4190"
     showgrid="false"
     inkscape:zoom="7.4864101"
     inkscape:cx="166.03223"
     inkscape:cy="196.02759"
     inkscape:window-x="-8"
     inkscape:window-y="-8"
     inkscape:window-maximized="1"
     inkscape:current-layer="g4138" />
  <g
     transform="translate(-175.1341,99.71457)"
     id="g4138">
    <path
       style="mix-blend-mode:normal;fill:#ffbfbf;fill-rule:nonzero;stroke:#000000;stroke-width:1;stroke-linecap:butt;stroke-linejoin:miter;stroke-miterlimit:10;stroke-dasharray:none;stroke-dashoffset:0"
       inkscape:connector-curvature="0"
       id="path4142"
       data-paper-data="{&quot;index&quot;:null}"
       d="m 386.70151,58.974776 c 4.28299,0.32828 17.83339,14.990453 17.83339,14.990453 0,0 4.0335,-0.855293 6.08875,-0.04208 0.73759,0.291842 4.38767,3.910424 5.06532,5.643333 0.67745,1.732424 2.88157,4.567283 2.73725,5.538677 -0.30161,2.030081 -1.29314,3.303308 -3.3887,2.330546 -1.76593,-0.819748 -0.79764,-1.270609 -2.54929,-3.604749 -1.50351,-2.003532 -2.02968,-2.420829 -2.02968,-2.420829 0,0 -2.09633,-0.399711 -2.98348,0.257367 -0.68302,0.44701 -3.50527,-0.995754 -3.23515,0.992408 0.27471,2.022011 5.47794,6.790368 1.16391,7.385978 -3.18195,0.439333 -13.4148,-12.205615 -15.34375,-14.44617 -1.71616,-1.993394 -4.50387,-6.086592 -6.63241,-6.003416 -4.81342,0.188103 -16.47711,-3.250194 -17.13287,-6.152064 -0.95092,-4.207975 15.52431,-4.84364 20.40673,-4.469407 z" />
    <path
       style="mix-blend-mode:normal;fill:#ffbfbf;fill-rule:nonzero;stroke:#000000;stroke-width:1;stroke-linecap:butt;stroke-linejoin:miter;stroke-miterlimit:10;stroke-dasharray:none;stroke-dashoffset:0"
       inkscape:connector-curvature="0"
       id="path4144"
       d="m 342.74382,61.120483 c -0.78431,2.869789 -12.76749,6.252717 -17.56774,5.850529 -2.12273,-0.177849 -6.29113,4.284778 -11.17256,7.103659 -0.63233,0.365165 -10.2461,12.275149 -13.40534,11.69461 -4.28326,-0.787079 -0.0885,-4.465662 0.60891,-6.41468 0.67592,-1.889098 -0.76758,-1.0588 -1.43004,-1.535774 -0.85701,-0.695913 -1.28542,-1.531949 -1.28542,-1.531949 0,0 -1.00984,0.394289 -1.99448,1.490012 -1.0033,1.116455 1.76413,1.511518 1.35715,2.182654 -1.00947,1.66477 -2.65849,2.496088 -3.61561,1.674151 -0.74504,-0.639812 -2.31168,-4.905148 -1.55778,-6.605693 0.75408,-1.701045 4.56166,-5.153543 5.31151,-5.412257 2.08944,-0.720906 6.08085,0.313085 6.08085,0.313085 0,0 14.18966,-14.044438 18.48301,-14.181743 4.89425,-0.156517 21.32485,1.211916 20.18754,5.373386 z" />
    <g
       style="mix-blend-mode:normal;fill-rule:nonzero;stroke-linecap:butt;stroke-linejoin:miter;stroke-miterlimit:10;stroke-dasharray:none;stroke-dashoffset:0"
       id="g4146"
       transform="matrix(1.0549665,0,0,0.94645627,107.86389,-121.40214)">
      <path
         style="fill:#e5e5e5;stroke:#000000;stroke-width:1"
         inkscape:connector-curvature="0"
         id="path4148"
         d="m 251.8,218.76211 c 0,0 -14.44212,3.16667 -22.38889,3.16667 -7.94676,0 -22.27778,-2.16667 -22.27778,-2.16667 0,0 3.03005,-12.66918 10.00759,-22.60578 4.89997,-6.97797 13.55032,-4.15933 29.93685,-4.22755 6.46113,-0.0269 -0.0892,13.19098 0.11207,16.52885 0.18187,3.01664 4.61015,9.30449 4.61015,9.30449 z" />
      <path
         style="fill:#cccccc;stroke:none;stroke-width:0"
         inkscape:connector-curvature="0"
         id="path4150"
         d="m 249.66112,197.651 c 0,0 -1.85541,7.91666 -3.25,11.25 -1.00534,2.40294 -25.73891,4.64359 -33.52124,0.53123 -3.35564,-1.77319 4.43791,-11.07352 4.43791,-11.4479 0,-1.24264 16.18875,1.08334 19.91667,1.08334 3.72792,0 12.41667,-1.41667 12.41667,-1.41667 z" />
      <path
         style="fill:#1a1a1a;stroke:#000000;stroke-width:1"
         inkscape:connector-curvature="0"
         id="path4152"
         d="m 251.8,218.87323 c 0,0 0.0822,2.21654 0.47988,4.2571 0.29637,1.52061 4.00406,2.32715 4.00406,2.32715 0,0 0.46261,5.45584 1.44027,6.97267 1.06311,1.64941 3.89749,4.70424 3.89749,4.70424 l -22.47842,1.42799 c 0,0 -1.28982,-1.70424 -1.87814,-4.42729 -0.24594,-1.13833 -1.89011,-1.95053 -1.89011,-1.95053 0,0 -1.32335,0.43119 -4.11407,0.37015 -2.60378,-0.057 -3.67184,-0.62436 -3.67184,-0.62436 0,0 0.80507,2.40673 0.84795,3.60102 0.0379,1.055 0.32084,3.09902 0.32084,3.09902 l -30.58364,-0.37605 c 0,0 3.88565,-1.72053 4.31137,-3.73953 0.41135,-1.95082 0.30229,-4.32939 0.30229,-4.32939 0,0 2.83799,-2.46082 3.12318,-4.0344 0.26946,-1.48683 1.44445,-6.5 1.44445,-6.5 0,0 15.98406,2.35933 22.44445,2.05555 10.57954,-0.49748 22,-2.83333 22,-2.83333 z" />
      <path
         style="fill:#4d4d4d;stroke:#000000;stroke-width:1"
         inkscape:connector-curvature="0"
         id="path4154"
         d="m 228.02223,236.87322 c 4.31271,-1.40448 3.63723,16.05556 -2.22222,19.83334 -4.17756,2.69341 -24.15149,7.05284 -29.33333,-4.61112 -2.29593,-5.16798 0.27758,-17.47535 4.55555,-14.94445 3.19278,1.88889 22.68729,1.1267 27,-0.27778 z" />
      <path
         style="fill:#4d4d4d;stroke:#000000;stroke-width:1"
         inkscape:connector-curvature="0"
         id="path4156"
         d="m 261.02223,235.87322 c 4.3369,-1.32792 16.63723,12.05556 10.77777,15.83334 -4.17757,2.69341 -21.95098,6.11333 -31.88888,-1.94445 -2.73739,-2.21952 -4.94464,-15.58645 -0.66667,-13.05555 3.19278,1.88889 16.46507,0.79337 21.77778,-0.83334 z" />
    </g>
    <g
       style="mix-blend-mode:normal;fill-rule:nonzero;stroke-linecap:butt;stroke-linejoin:miter;stroke-miterlimit:10;stroke-dasharray:none;stroke-dashoffset:0"
       id="g4158"
       transform="matrix(0.99423544,0.10721894,-0.10721894,0.99423544,140.79765,-155.32845)">
      <path
         style="fill:#000000;stroke:none;stroke-width:0"
         inkscape:connector-curvature="0"
         id="path4160"
         d="m 210.70003,195.27778 c -5.28632,-2.11881 -11.53494,-34.87984 -7.9355,-40.59524 8.89938,-14.13093 44.06192,-18.35165 65.44116,-5.92449 5.50299,3.19874 4.02541,44.52148 1.51526,45.15755 -14.34327,3.63459 -37.5729,9.95874 -59.02092,1.36217 z" />
      <path
         style="fill:#656565;stroke:none;stroke-width:0"
         inkscape:connector-curvature="0"
         id="path4162"
         d="m 268.92858,187.59524 c 0.14285,6.52561 -15.42072,9.71429 -32.85714,9.71429 -17.43642,0 -25.71428,-1.33154 -26.28571,-8 -1.1182,-13.04922 -0.15035,-39.9112 26,-39.71429 25.29331,0.19046 32.8562,24.9061 33.14285,38 z" />
      <path
         style="fill:#000000;stroke:none;stroke-width:0"
         inkscape:connector-curvature="0"
         id="path4164"
         d="m 267.37843,184.32307 c 0,6.98427 -12.4987,10.75761 -27.56418,10.75761 -15.06548,0 -26.99275,-4.20191 -26.99275,-10.32904 0,-6.12713 -0.631,-18.6893 -0.631,-18.6893 l 43.5225,-0.42872 1.96206,11.63263 c 0,0 9.70337,3.35827 9.70337,7.05682 z" />
      <path
         style="fill:#ffbfbf;stroke:none;stroke-width:0"
         inkscape:connector-curvature="0"
         id="path4166"
         d="m 266.33333,184.1475 c 0,5.97705 -11.78983,10.07604 -26.33333,10.07604 -14.5435,0 -26.33334,-4.09899 -26.33334,-10.07604 0,-5.97705 -0.33333,-17.95281 -0.33333,-17.95281 l 41.46293,-0.41822 2.1699,12.32321 c 0,0 9.36717,2.85793 9.36717,6.04782 z" />
      <path
         style="fill:#808080;stroke:none;stroke-width:0"
         inkscape:connector-curvature="0"
         id="path4168"
         d="m 213.50001,169 c -4.90385,5.85841 2.67699,24.83334 -1.83334,24.83334 -4.51032,0 -10.95021,-32.68823 -7.5,-38.16667 8.53042,-13.54507 42.12866,-18.33634 62.62154,-6.4244 5.27485,3.06612 3.35784,43.80799 1.87847,43.9244 -8.47218,0.66666 -3.07312,-25.17091 -15.43174,-26.26866 -14.35988,-1.18992 -37.16766,-0.965 -39.73493,2.10199 z" />
      <path
         style="fill:#000000;stroke:none;stroke-width:0"
         inkscape:connector-curvature="0"
         id="path4170"
         d="m 229.78572,176.95238 c 0,0.74953 -0.57563,1.35714 -1.28571,1.35714 -0.71008,0 -1.28572,-0.60761 -1.28572,-1.35714 0,-0.74953 0.57564,-1.35715 1.28572,-1.35715 0.71008,0 1.28571,0.60762 1.28571,1.35715 z" />
      <path
         style="fill:#000000;stroke:none;stroke-width:0"
         inkscape:connector-curvature="0"
         id="path4172"
         d="m 251.78573,175.2381 c 0,0.74953 -0.57564,1.35714 -1.28572,1.35714 -0.71008,0 -1.28572,-0.60761 -1.28572,-1.35714 0,-0.74953 0.57564,-1.35715 1.28572,-1.35715 0.71008,0 1.28572,0.60762 1.28572,1.35715 z" />
      <path
         style="fill:#000000;stroke:none;stroke-width:0.5"
         inkscape:connector-curvature="0"
         id="path4174"
         d="m 252.88512,169.11697 c 0.33541,0.67082 -0.33541,1.00623 -0.33541,1.00623 l -0.34259,0.1684 c -2.62419,1.04968 -5.36846,2.423 -8.15524,2.90058 0,0 -0.7398,0.1233 -0.8631,-0.61649 -0.1233,-0.73979 0.6165,-0.8631 0.6165,-0.8631 2.66782,-0.42954 5.33601,-1.8102 7.84475,-2.8137 l 0.22885,-0.11732 c 0,0 0.67082,-0.33541 1.00623,0.33541 z" />
      <path
         style="fill:#000000;stroke:none;stroke-width:0.5"
         inkscape:connector-curvature="0"
         id="path4176"
         d="m 225.51794,169.3167 c 0.27855,-0.69636 0.9749,-0.41782 0.9749,-0.41782 l 0.71428,0.28572 c 2.30544,0.92334 4.31592,2.39234 6.57143,3.28572 0,0 0.69636,0.27854 0.41781,0.9749 -0.27855,0.69636 -0.9749,0.41781 -0.9749,0.41781 -2.26621,-0.91409 -4.25591,-2.3606 -6.57143,-3.28571 l -0.71428,-0.28572 c 0,0 -0.69636,-0.27854 -0.41781,-0.9749 z" />
      <path
         style="fill:#000000;stroke:none;stroke-width:0.5"
         inkscape:connector-curvature="0"
         id="path4178"
         d="m 250.23471,185.60335 c 0.13772,0.60839 -0.41318,0.76049 -0.41318,0.76049 l -0.27822,0.0488 c -2.65271,1.73824 -5.8298,3.07564 -8.94541,3.07564 -4.1574,0 -8.38979,0.14912 -11.54259,-3.2894 0,0 -0.40154,-0.44344 0,-0.88688 0.40154,-0.44344 0.80308,0 0.80308,0 2.85238,3.19979 6.95331,2.92205 10.73951,2.92205 2.88658,0 5.91476,-1.25399 8.36108,-2.89691 l 0.5871,-0.19009 c 0,0 0.55092,-0.1521 0.68864,0.45629 z" />
      <path
         style="fill:#000000;stroke:none;stroke-width:0"
         inkscape:connector-curvature="0"
         id="path4180"
         d="m 212.35715,180.59524 c 0.16298,2.93373 0.47129,13.42857 -0.92857,13.42857 -0.82842,0 -0.35714,-13.61813 -0.35714,-16.14286 0,-2.52473 0.66969,-8.53772 1.35714,-9 0.31403,-0.21117 6.03165,-2.67516 20.0965,-2.65679 5.267,0.007 16.58095,-0.9574 22.83264,0.20867 2.1007,0.39182 3.79307,3.16902 5.95015,9.12854 2.07452,5.73141 5.78607,16.1707 5.24356,17.16641 -0.27092,0.49725 -0.009,1.92809 -1.51042,-1.86456 -2.8154,-7.1136 -5.66301,-20.886 -8.69108,-22.84309 -2.31737,-1.49776 -16.08712,-1.09319 -20.99089,-0.81967 -8.11188,0.45246 -19.51119,1.26569 -20.71027,2.54317 -2.71915,2.89693 -2.35434,9.72252 -2.29161,10.85161 z" />
      <path
         style="fill:#cccccc;stroke:#000000;stroke-width:0.5"
         inkscape:connector-curvature="0"
         id="path4182"
         d="m 265.10715,187.7381 c 0,0.75 -0.75,0.75 -0.75,0.75 l -0.26616,-0.0102 c -2.41413,-0.41021 -4.42926,1.33904 -6.71177,1.99184 -0.81374,0.13446 -1.62608,0.25653 -2.43742,0.36735 -0.24664,1.1967 -0.50792,2.3903 -0.702,3.59574 l -0.0538,0.26958 c 1.30344,-0.23924 2.59753,-0.71085 3.87554,-0.98431 2.78483,-0.59588 5.80196,-0.59478 8.44561,-1.67636 l 0.4214,-0.0537 c 0,0 0.75,0 0.75,0.75 0,0.75 -0.75,0.75 -0.75,0.75 l 0.13569,-0.0536 c -2.75921,1.08385 -5.80871,1.13228 -8.69725,1.75221 -1.80484,0.38735 -3.63923,1.15295 -5.48966,1.15295 -8.03897,2.05366 -15.28147,2.39862 -23.49845,1.28968 -0.1414,5e-5 -0.28435,5e-5 -0.42876,-6e-5 -0.0767,0.0147 -0.16273,0.0164 -0.25892,-3.3e-4 -5.51863,-0.01 -13.02359,-0.23396 -17.00726,-4.21764 0,0 -0.53033,-0.53033 0,-1.06066 0.53033,-0.53033 1.06066,0 1.06066,0 1.70784,1.70784 4.19026,2.64433 6.87182,3.15789 l 9.1e-4,-0.0366 c 0.21089,-1.24632 0.38491,-2.44128 0.51919,-3.62898 -2.70102,-0.23317 -5.33486,-0.7227 -7.77222,-1.69422 0,0 -0.69636,-0.27854 -0.41782,-0.9749 0.27855,-0.69636 0.9749,-0.41782 0.9749,-0.41782 2.29809,0.92281 4.79483,1.39088 7.36114,1.61409 0.1012,-1.19234 0.16127,-2.3957 0.17735,-3.65454 -3.26629,-0.20804 -6.38123,-0.82724 -8.71413,-2.67754 0,0 -0.58565,-0.46853 -0.11713,-1.05418 0.46852,-0.58565 1.05417,-0.11713 1.05417,-0.11713 1.45624,1.17696 2.96764,1.30067 4.77882,1.55725 1.00673,0.14262 2.01206,0.24985 3.0164,0.33592 0.0365,-1.86018 0.13141,-3.86393 0.10629,-5.87417 -0.70972,-0.032 -1.41987,-0.0695 -2.13092,-0.11337 -2.55812,-0.15773 -5.68033,-0.33317 -7.62658,-2.21822 0,0 -0.53033,-0.53033 0,-1.06066 0.53033,-0.53033 1.06066,0 1.06066,0 1.55219,1.62625 4.58163,1.65027 6.65913,1.78178 0.66528,0.0421 1.32975,0.0782 1.99383,0.10916 -0.16642,-3.47559 -0.82713,-6.86811 -2.9118,-9.46352 0,0 -0.46852,-0.58565 0.11713,-1.05417 0.58565,-0.46852 1.05417,0.11713 1.05417,0.11713 2.3244,2.91595 3.03201,6.65139 3.208,10.46079 2.58627,0.0924 5.17096,0.11488 7.77778,0.11488 0.47761,0 0.95451,-4.7e-4 1.43075,-0.002 -0.11887,-4.04611 -0.8388,-8.1585 -2.6453,-11.1483 0,0 -0.38587,-0.64312 0.25725,-1.02899 0.64312,-0.38587 1.02899,0.25725 1.02899,0.25725 1.93146,3.23877 2.71803,7.61539 2.85011,11.91448 3.53753,-0.0188 7.04272,-0.0803 10.54259,-0.24645 -0.059,-1.03346 -0.13398,-2.06344 -0.2125,-3.08614 -0.19997,-2.6044 -0.23807,-5.56965 -2.21078,-7.52284 0,0 -0.53033,-0.53033 0,-1.06066 0.53033,-0.53033 1.06066,0 1.06066,0 2.4725,2.49304 3.18002,7.09865 3.23292,11.57054 2.89525,-0.16993 5.79015,-0.41904 8.69999,-0.78236 0.0614,-0.0102 0.12257,-0.0205 0.18365,-0.0309 -0.0314,-0.72489 -0.0677,-1.44951 -0.10929,-2.17382 -0.14721,-2.56364 -1.27728,-4.99976 -1.70597,-7.5013 0,0 -0.1233,-0.73979 0.6165,-0.86309 0.73979,-0.1233 0.86309,0.61649 0.86309,0.61649 0.41182,2.55776 1.56489,5.01969 1.72261,7.64156 0.0403,0.66933 0.0754,1.3391 0.10594,2.00924 1.80984,-0.35476 3.52945,-0.80296 5.29597,-1.50957 l 0.46994,-0.15801 c 0,0 0.71151,-0.23717 0.94868,0.47434 0.23717,0.71151 -0.47434,0.94868 -0.47434,0.94868 l -0.3872,0.1277 c -1.92656,0.77062 -3.80702,1.25219 -5.79162,1.63219 0.0529,1.48407 0.0853,2.96961 0.10295,4.45566 2.19131,-0.36522 4.37407,-0.72901 6.57254,-1.09543 l 0.83759,-0.0102 c 0,0 0.75,0 0.75,0.75 0,0.75 -0.75,0.75 -0.75,0.75 l -0.59099,-0.0102 c -2.27745,0.37957 -4.53638,0.75607 -6.80605,1.13434 0.003,0.51813 0.004,1.03628 0.004,1.55443 -0.003,1.40061 -0.18631,2.76773 -0.43305,4.12275 0.60072,-0.0874 1.20195,-0.18155 1.80383,-0.28296 2.57432,-0.73463 4.50527,-2.46413 7.28823,-2.00815 l 0.0196,-0.0102 c 0,0 0.75,0 0.75,0.75 z m -31.67857,4.17857 c -0.76908,0 -1.55116,0.0102 -2.34279,0.0247 -0.37008,1.40035 -0.80166,2.79349 -1.2756,4.23429 3.42093,0.43605 6.64205,0.61228 9.82212,0.52173 0.0141,-0.0589 0.0285,-0.095 0.0285,-0.095 l 0.28571,-0.71428 c 0.54782,-1.36955 1.07511,-2.70764 1.54723,-4.05386 -2.6732,0.0684 -5.35725,0.0824 -8.06516,0.0824 z m 0,-1.5 c 2.8755,0 5.7262,-0.0107 8.56629,-0.0868 0.3108,-0.98968 0.58545,-1.99149 0.81052,-3.02078 -3.52579,0.41171 -7.54011,0.23608 -10.73589,-0.16685 -0.15879,1.12995 -0.36557,2.2202 -0.61191,3.29493 0.66613,-0.0123 1.32395,-0.0204 1.971,-0.0204 z m 18.76616,-6.22449 c -2.08113,0.3408 -3.74105,1.80207 -5.75682,2.40466 -0.64379,0.19245 -1.33258,0.35149 -2.05334,0.48072 -0.21968,1.0934 -0.49397,2.15563 -0.80877,3.20272 3.37992,-0.122 6.74852,-0.35146 10.12974,-0.78114 0.2713,-1.42476 0.47648,-2.86146 0.47303,-4.33247 0,-0.43493 -0.001,-0.86979 -0.003,-1.30459 -0.65851,0.10976 -1.31847,0.21974 -1.98057,0.3301 z m -10.85551,12.25303 -0.0728,0.18194 c 3.71922,-0.21385 7.41947,-0.79644 11.35699,-1.75899 l 0.13678,-0.68193 c 0.18066,-1.05418 0.4109,-2.10146 0.63306,-3.15087 -3.43805,0.41138 -6.86201,0.63303 -10.29963,0.75113 -0.52496,1.55152 -1.12553,3.08648 -1.75442,4.65873 z m 4.65144,-11.28014 c 2.08209,-0.66373 3.77885,-2.08383 5.95747,-2.45248 0.74038,-0.12339 1.47826,-0.24638 2.21456,-0.36909 -0.0172,-1.48062 -0.0492,-2.96034 -0.10003,-4.43899 -0.009,0.001 -0.0173,0.003 -0.0259,0.004 -2.984,0.3734 -5.95258,0.6279 -8.92181,0.8004 -0.0453,2.487 -0.25886,4.85121 -0.44185,6.69066 -0.006,0.0394 -0.0113,0.0787 -0.0171,0.11803 0.46653,-0.10135 0.91313,-0.21849 1.33464,-0.35286 z m -16.20494,-6.10554 c -2.59172,0 -5.16199,-0.0252 -7.73354,-0.11516 0.0293,2.02014 -0.0506,4.03362 -0.0786,5.92984 2.93204,0.20033 5.85752,0.28036 8.78695,0.59509 0.27299,-1.92287 0.46044,-4.13263 0.47336,-6.41138 -0.48205,0.001 -0.96475,0.002 -1.44817,0.002 z m -8.68878,16.65901 0.002,0.0307 c 2.44356,0.33146 4.96238,0.37604 7.1461,0.38224 0.47414,-1.42336 0.90693,-2.79014 1.28036,-4.15817 -2.59579,0.0562 -5.26782,0.1153 -7.89919,-0.0267 -0.13898,1.23628 -0.31747,2.47896 -0.5292,3.7719 z m 9.4821,-8.75316 c -2.60729,-0.23057 -5.63644,-0.0883 -8.62024,-0.18052 -0.0183,1.26692 -0.0823,2.48293 -0.18611,3.6885 2.71279,0.14322 5.47471,0.0619 8.13719,-0.002 0.27185,-1.14211 0.49832,-2.29963 0.66916,-3.50562 z m 12.605,-1.74622 c 0.21346,-2.12277 0.22316,-4.27258 0.13894,-6.41548 -3.5174,0.16699 -7.04023,0.22942 -10.59517,0.24858 -0.008,2.33295 -0.19405,4.60026 -0.47893,6.60291 3.16434,0.41003 7.35365,0.61604 10.84739,0.13562 0.0311,-0.1894 0.0604,-0.37992 0.0878,-0.57163 z" />
      <path
         style="fill:#989898;stroke:none;stroke-width:0"
         inkscape:connector-curvature="0"
         id="path4184"
         d="m 204.66668,154.67461 c 4.90504,-6.62623 15.66982,-11.15853 29.65835,-11.94163 20.10039,-1.12526 33.00038,6.26791 33.00038,7.11623 0,1.34126 -45.52821,11.83217 -48.5,12.55555 -15.32503,3.73036 -7.251,29.81271 -8.5,30.30159 -3.14286,1.23017 -10.12756,-31.99479 -5.65873,-38.03174 z" />
      <path
         style="fill:#b4b4b4;stroke:none;stroke-width:0"
         inkscape:connector-curvature="0"
         id="path4186"
         d="m 226.70629,143.27927 c 2.82915,-0.28895 6.53816,-0.57271 6.53816,-0.57271 l -29.87614,23.04126 c 0,0 -0.3522,-3.17656 -0.0128,-7.4857 0.41769,-5.30227 6.98839,-8.91942 6.98839,-8.91942 0,0 8.77696,-5.28872 16.36234,-6.06343 z" />
      <path
         style="fill:#cccccc;stroke:none;stroke-width:0"
         inkscape:connector-curvature="0"
         id="path4188"
         d="m 223.91112,143.81767 -20.66667,15.88889 c 0,0 -0.95891,-6.44725 7.22222,-10.77778 7.80767,-4.13285 13.44445,-5.11111 13.44445,-5.11111 z" />
    </g>
  </g>
</svg>
