<?xml version="1.0" encoding="UTF-8" standalone="no"?>
<svg
   xmlns:dc="http://purl.org/dc/elements/1.1/"
   xmlns:cc="http://creativecommons.org/ns#"
   xmlns:rdf="http://www.w3.org/1999/02/22-rdf-syntax-ns#"
   xmlns:svg="http://www.w3.org/2000/svg"
   xmlns="http://www.w3.org/2000/svg"
   xmlns:sodipodi="http://sodipodi.sourceforge.net/DTD/sodipodi-0.dtd"
   xmlns:inkscape="http://www.inkscape.org/namespaces/inkscape"
   version="1.1"
   width="480"
   height="360"
   viewBox="0 0 479.99999 360.00002"
   id="svg4136"
   inkscape:version="0.91 r13725"
   sodipodi:docname="Up1.svg">
  <metadata
     id="metadata4198">
    <rdf:RDF>
      <cc:Work
         rdf:about="">
        <dc:format>image/svg+xml</dc:format>
        <dc:type
           rdf:resource="http://purl.org/dc/dcmitype/StillImage" />
        <dc:title></dc:title>
      </cc:Work>
    </rdf:RDF>
  </metadata>
  <defs
     id="defs4196" />
  <sodipodi:namedview
     pagecolor="#ffffff"
     bordercolor="#666666"
     borderopacity="1"
     objecttolerance="10"
     gridtolerance="10"
     guidetolerance="10"
     inkscape:pageopacity="0"
     inkscape:pageshadow="2"
     inkscape:window-width="1858"
     inkscape:window-height="1057"
     id="namedview4194"
     showgrid="false"
     inkscape:zoom="5.2527446"
     inkscape:cx="230.94481"
     inkscape:cy="215.4862"
     inkscape:window-x="-8"
     inkscape:window-y="-8"
     inkscape:window-maximized="1"
     inkscape:current-layer="svg4136" />
  <path
     d="m 266.50634,138.84485 c 3.74563,2.10286 9.85405,21.11022 9.85405,21.11022 0,0 4.01822,0.92438 5.53928,2.52807 0.54587,0.57552 2.3308,5.3954 2.21495,7.25249 -0.11582,1.85656 0.68815,5.3563 0.14786,6.17637 -1.12914,1.71385 -2.56493,2.45057 -4.05528,0.68522 -1.25591,-1.48767 -0.1878,-1.48843 -0.79249,-4.3434 -0.51904,-2.45057 -0.82031,-3.05076 -0.82031,-3.05076 0,0 -1.73258,-1.24601 -2.81402,-1.02406 -0.8078,0.11749 -2.75905,-2.38035 -3.35205,-0.46356 -0.60309,1.94943 2.10571,8.46658 -2.05747,7.18848 -3.0707,-0.9427 -7.02081,-16.72251 -7.82573,-19.56733 -0.71614,-2.53101 -1.519,-7.41783 -3.48431,-8.23952 -4.44429,-1.85813 -13.57227,-9.89201 -12.9439,-12.79994 0.9112,-4.21675 16.11955,2.15061 20.38941,4.54777 z"
     data-paper-data="{&quot;index&quot;:null}"
     id="path4142"
     inkscape:connector-curvature="0"
     style="mix-blend-mode:normal;fill:#ffbfbf;fill-rule:nonzero;stroke:#000000;stroke-width:1;stroke-linecap:butt;stroke-linejoin:miter;stroke-miterlimit:10;stroke-dasharray:none;stroke-dashoffset:0" />
  <path
     d="m 223.1527,134.62204 c 0.78892,2.86853 -7.79358,11.88973 -12.1278,13.99183 -1.91663,0.92959 -9.09796,3.89391 -11.85929,8.80813 -0.3577,0.63659 -3.45633,14.98436 -6.46993,16.09616 -4.08577,1.50737 -2.07848,-4.41726 -2.47259,-6.44942 -0.38199,-1.96968 -1.37902,0.6587 -2.1921,0.58626 -1.09209,-0.16155 -1.98322,-1.21914 -1.98322,-1.21914 0,0 -0.66756,0.85417 -0.95573,2.29884 -0.29364,1.47203 0.25313,1.89932 0.24533,2.68417 -0.0194,1.94682 -2.98017,0.97494 -4.22265,0.75602 -0.96715,-0.1704 -0.48849,-2.01126 -0.70729,-3.85851 -0.21886,-1.84778 1.29563,-6.75937 1.80869,-7.36433 1.42965,-1.6857 5.39031,-2.83184 5.39031,-2.83184 0,0 11.81783,-15.51727 15.44088,-17.82492 4.13012,-2.63063 18.96132,-9.83291 20.10533,-5.67328 z"
     id="path4144"
     inkscape:connector-curvature="0"
     style="mix-blend-mode:normal;fill:#ffbfbf;fill-rule:nonzero;stroke:#000000;stroke-width:1;stroke-linecap:butt;stroke-linejoin:miter;stroke-miterlimit:10;stroke-dasharray:none;stroke-dashoffset:0" />
  <g
     style="mix-blend-mode:normal;fill-rule:nonzero;stroke-linecap:butt;stroke-linejoin:miter;stroke-miterlimit:10;stroke-dasharray:none;stroke-dashoffset:0"
     id="g4146"
     transform="matrix(0.99992568,0,0,1.0119996,0.56825551,-52.940411)">
    <path
       d="m 254.43749,211.79162 c 0,0 -14.25373,2.4131 -22.2005,2.4131 -7.94676,0 -22.46617,-1.4131 -22.46617,-1.4131 0,0 2.54907,-11.44448 7.74689,-22.41739 4.52845,-9.55982 10.53605,-7.1736 26.92258,-7.24182 6.46113,-0.0269 5.75098,16.01686 5.95222,19.35473 0.20124,3.33787 4.04497,9.30449 4.04497,9.30449 z"
       id="path4148"
       inkscape:connector-curvature="0"
       style="fill:#e5e5e5;stroke:#000000;stroke-width:1" />
    <path
       d="m 249.42539,201.93051 c -1.00534,2.40294 -26.11569,4.64359 -33.89802,0.53123 -3.35564,-1.77319 1.47079,-8.42501 1.80043,-9.94077 0.64984,-2.9881 3.00132,-10.40856 18.97471,-9.08982 10.68533,-0.22563 10.66898,0.50768 12.12009,5.2975 1.44913,4.78327 1.71012,11.51121 1.0028,13.20185 z"
       id="path4150"
       inkscape:connector-curvature="0"
       style="fill:#cccccc;stroke:none;stroke-width:0" />
    <path
       d="m 254.72898,216.34823 c 0.39771,2.04056 4.38084,-0.12194 4.38084,-0.12194 0,0 0.0858,6.58619 1.06349,8.10302 1.06311,1.64941 5.40463,10.54439 5.40463,10.54439 0,0 -10.53911,-0.61228 -13.8924,-0.53594 -3.72382,0.0848 -11.6003,1.39875 -11.6003,1.39875 0,0 -0.34786,-3.21138 -0.93618,-5.93443 -0.24594,-1.13833 -1.32493,-3.83445 -1.32493,-3.83445 0,0 -1.32335,-0.13399 -4.11407,-0.19503 -2.60378,-0.057 -4.23702,1.07117 -4.23702,1.07117 0,0 0.42829,2.21834 0.47117,3.41263 0.0429,1.19429 -1.1863,9.50434 -1.1863,9.50434 0,0 -10.89751,-3.13662 -15.13684,-3.38709 -4.25959,-0.25166 -12.62092,0.56195 -12.62092,0.56195 0,0 3.50886,-7.18389 3.93458,-9.20289 0.41135,-1.95082 -0.82806,-8.09723 -0.82806,-8.09723 0,0 3.96834,1.30702 4.25353,-0.26656 0.26946,-1.48683 0.50249,-7.81874 0.50249,-7.81874 0,0 16.73763,2.73611 23.19802,2.43233 10.57954,-0.49748 22.37678,-1.89137 22.37678,-1.89137 0,0 -0.10623,2.21653 0.29148,4.25709 z"
       id="path4152"
       inkscape:connector-curvature="0"
       style="fill:#1a1a1a;stroke:#000000;stroke-width:1" />
    <path
       d="m 205.3211,260.0079 c -9.64084,-3.15014 -9.94168,-8.81188 -8.82225,-14.03172 0.90998,-4.24314 4.2685,-8.38658 5.08857,-12.40464 0.55252,-2.70718 6.3092,0.71431 12.38909,2.2055 6.07989,1.49119 14.20069,-1.818 14.61091,0.15421 2.1038,10.11456 -1.68783,4.5821 1.47479,9.52254 3.60323,5.62873 -0.56244,12.95267 -5.58092,14.26705 -6.87468,1.80054 -9.73705,3.36607 -19.16019,0.28706 z"
       id="path4154"
       inkscape:connector-curvature="0"
       style="fill:#4d4d4d;stroke:#000000;stroke-width:1" />
    <path
       d="m 243.67896,253.52996 c -2.62051,-1.48106 -0.83776,-6.1938 -2.19383,-8.31808 -1.35607,-2.12428 -2.03471,-7.77167 -0.54514,-10.76602 1.32122,-2.65593 6.53252,-0.44878 10.86486,0.0782 4.75334,0.5782 9.43251,-1.91259 11.4781,-2.60707 3.91001,-1.32746 13.96669,16.20463 12.66168,20.73154 -1.33539,4.63229 -17.72164,9.10142 -32.26567,0.88142 z"
       id="path4156"
       inkscape:connector-curvature="0"
       style="fill:#4d4d4d;stroke:#000000;stroke-width:1" />
  </g>
  <g
     style="mix-blend-mode:normal;fill-rule:nonzero;stroke-linecap:butt;stroke-linejoin:miter;stroke-miterlimit:10;stroke-dasharray:none;stroke-dashoffset:0"
     id="g4158"
     transform="matrix(0.99789756,-0.06481097,0.06481098,0.99789756,-9.7680896,-36.067486)">
    <path
       d="m 209.94646,182.84392 c -5.28632,-2.11881 -11.53494,-34.87984 -7.9355,-40.59524 8.89938,-14.13093 44.06192,-18.35165 65.44116,-5.92449 5.50299,3.19874 4.02541,44.52148 1.51526,45.15755 -14.34327,3.63459 -37.5729,9.95874 -59.02092,1.36217 z"
       id="path4160"
       inkscape:connector-curvature="0"
       style="fill:#000000;stroke:none;stroke-width:0" />
    <path
       d="m 268.17501,175.16138 c 0.14285,6.52561 -15.42072,9.71429 -32.85714,9.71429 -17.43642,0 -25.71428,-1.33154 -26.28571,-8 -1.1182,-13.04922 -0.15035,-39.9112 26,-39.71429 25.29331,0.19046 32.8562,24.9061 33.14285,38 z"
       id="path4162"
       inkscape:connector-curvature="0"
       style="fill:#656565;stroke:none;stroke-width:0" />
    <path
       d="m 266.62486,171.88921 c 0,6.98427 -12.4987,10.75761 -27.56418,10.75761 -15.06548,0 -26.99275,-4.20191 -26.99275,-10.32904 0,-6.12713 -0.631,-18.6893 -0.631,-18.6893 l 43.5225,-0.42872 1.96206,11.63263 c 0,0 9.70337,3.35827 9.70337,7.05682 z"
       id="path4164"
       inkscape:connector-curvature="0"
       style="fill:#000000;stroke:none;stroke-width:0" />
    <path
       d="m 265.57976,171.71364 c 0,5.97705 -11.78983,10.07604 -26.33333,10.07604 -14.5435,0 -26.33334,-4.09899 -26.33334,-10.07604 0,-5.97705 -0.33333,-17.95281 -0.33333,-17.95281 l 41.46293,-0.41822 2.1699,12.32321 c 0,0 9.36717,2.85793 9.36717,6.04782 z"
       id="path4166"
       inkscape:connector-curvature="0"
       style="fill:#ffbfbf;stroke:none;stroke-width:0" />
    <path
       d="m 212.74644,156.56614 c -4.90385,5.85841 2.67699,24.83334 -1.83334,24.83334 -4.51032,0 -10.95021,-32.68823 -7.5,-38.16667 8.53042,-13.54507 42.12866,-18.33634 62.62154,-6.4244 5.27485,3.06612 3.35784,43.80799 1.87847,43.9244 -8.47218,0.66666 -3.07312,-25.17091 -15.43174,-26.26866 -14.35988,-1.18992 -37.16766,-0.965 -39.73493,2.10199 z"
       id="path4168"
       inkscape:connector-curvature="0"
       style="fill:#808080;stroke:none;stroke-width:0" />
    <path
       d="m 229.03215,164.51852 c 0,0.74953 -0.57563,1.35714 -1.28571,1.35714 -0.71008,0 -1.28572,-0.60761 -1.28572,-1.35714 0,-0.74953 0.57564,-1.35715 1.28572,-1.35715 0.71008,0 1.28571,0.60762 1.28571,1.35715 z"
       id="path4170"
       inkscape:connector-curvature="0"
       style="fill:#000000;stroke:none;stroke-width:0" />
    <path
       d="m 251.03216,162.80424 c 0,0.74953 -0.57564,1.35714 -1.28572,1.35714 -0.71008,0 -1.28572,-0.60761 -1.28572,-1.35714 0,-0.74953 0.57564,-1.35715 1.28572,-1.35715 0.71008,0 1.28572,0.60762 1.28572,1.35715 z"
       id="path4172"
       inkscape:connector-curvature="0"
       style="fill:#000000;stroke:none;stroke-width:0" />
    <path
       d="m 252.13155,156.68311 c 0.33541,0.67082 -0.33541,1.00623 -0.33541,1.00623 l -0.34259,0.1684 c -2.62419,1.04968 -5.36846,2.423 -8.15524,2.90058 0,0 -0.7398,0.1233 -0.8631,-0.61649 -0.1233,-0.73979 0.6165,-0.8631 0.6165,-0.8631 2.66782,-0.42954 5.33601,-1.8102 7.84475,-2.8137 l 0.22885,-0.11732 c 0,0 0.67082,-0.33541 1.00623,0.33541 z"
       id="path4174"
       inkscape:connector-curvature="0"
       style="fill:#000000;stroke:none;stroke-width:0.5" />
    <path
       d="m 224.76437,156.88284 c 0.27855,-0.69636 0.9749,-0.41782 0.9749,-0.41782 l 0.71428,0.28572 c 2.30544,0.92334 4.31592,2.39234 6.57143,3.28572 0,0 0.69636,0.27854 0.41781,0.9749 -0.27855,0.69636 -0.9749,0.41781 -0.9749,0.41781 -2.26621,-0.91409 -4.25591,-2.3606 -6.57143,-3.28571 l -0.71428,-0.28572 c 0,0 -0.69636,-0.27854 -0.41781,-0.9749 z"
       id="path4176"
       inkscape:connector-curvature="0"
       style="fill:#000000;stroke:none;stroke-width:0.5" />
    <path
       d="m 211.60358,168.16138 c 0.16298,2.93373 0.47129,13.42857 -0.92857,13.42857 -0.82842,0 -0.35714,-13.61813 -0.35714,-16.14286 0,-2.52473 0.66969,-8.53772 1.35714,-9 0.31403,-0.21117 6.03165,-2.67516 20.0965,-2.65679 5.267,0.007 16.58095,-0.9574 22.83264,0.20867 2.1007,0.39182 3.79307,3.16902 5.95015,9.12854 2.07452,5.73141 5.78607,16.1707 5.24356,17.16641 -0.27092,0.49725 -0.009,1.92809 -1.51042,-1.86456 -2.8154,-7.1136 -5.66301,-20.886 -8.69108,-22.84309 -2.31737,-1.49776 -16.08712,-1.09319 -20.99089,-0.81967 -8.11188,0.45246 -19.51119,1.26569 -20.71027,2.54317 -2.71915,2.89693 -2.35434,9.72252 -2.29161,10.85161 z"
       id="path4178"
       inkscape:connector-curvature="0"
       style="fill:#000000;stroke:none;stroke-width:0" />
    <g
       id="g4180"
       style="stroke:none;stroke-width:0.5">
      <path
         d="m 246.59196,172.18757 c 0.31681,0.35355 0,0.70711 0,0.70711 l -0.41889,0.44856 c -0.31128,0.11579 -0.61206,0.30626 -0.84408,0.56518 -0.55681,0.21319 -1.11553,0.38239 -1.67649,0.51657 l -0.15979,0.53496 c -0.45819,1.53397 -0.95995,2.98313 -1.39444,4.43776 -3.42269,3.98068 -5.78592,-1.51667 -6.71471,-4.62616 0,0 -0.11985,-0.40125 0.19161,-0.58868 0.11415,-0.25782 0.40226,-0.25782 0.40226,-0.25782 3.04407,0 5.98276,0.14895 8.88047,-0.86728 0.23201,-0.25892 0.5328,-0.44938 0.84408,-0.56518 l 0.25637,-0.30501 c 0,0 0.31681,-0.35355 0.63363,0 z m -5.25595,6.68441 c 0.41088,-1.37559 0.86974,-2.7657 1.3066,-4.22826 l 0.004,-0.0142 c -2.05233,0.34805 -4.13716,0.3027 -6.27115,0.2962 0.74542,2.42942 2.29727,6.73382 4.9603,3.94627 z"
         id="path4182"
         inkscape:connector-curvature="0"
         style="fill:#000000" />
      <path
         d="m 236.33816,174.89842 c 2.13399,0.007 4.29245,0.0495 6.34478,-0.29855 l -0.004,0.0143 c -0.43686,1.46256 -0.89719,2.9139 -1.30808,4.28949 -2.66303,2.78755 -4.28709,-1.57582 -5.03251,-4.00524 z"
         data-paper-data="{&quot;noHover&quot;:false,&quot;origItem&quot;:[&quot;Path&quot;,{&quot;applyMatrix&quot;:true,&quot;segments&quot;:[[[241.33601,178.87197],[-2.66303,2.78755],[0.41088,-1.37559]],[[242.64261,174.6437],[-0.43686,1.46256],[0,0]],[[242.64685,174.62949],[0,0],[-2.05233,0.34805]],[[236.37571,174.92569],[2.13399,0.0065],[0.74542,2.42942]]],&quot;closed&quot;:true}]}"
         id="path4184"
         inkscape:connector-curvature="0"
         style="fill:#9a0000" />
    </g>
    <path
       d="m 264.35358,175.30424 c 0,0.75 -0.75,0.75 -0.75,0.75 l -0.26616,-0.0102 c -2.41413,-0.41021 -4.42926,1.33904 -6.71177,1.99184 -0.81374,0.13446 -1.62608,0.25653 -2.43742,0.36735 -0.24664,1.1967 -0.50792,2.3903 -0.702,3.59574 l -0.0538,0.26958 c 1.30344,-0.23924 2.59753,-0.71085 3.87554,-0.98431 2.78483,-0.59588 5.80196,-0.59478 8.44561,-1.67636 l 0.4214,-0.0537 c 0,0 0.75,0 0.75,0.75 0,0.75 -0.75,0.75 -0.75,0.75 l 0.13569,-0.0536 c -2.75921,1.08385 -5.80871,1.13228 -8.69725,1.75221 -1.80484,0.38735 -3.63923,1.15295 -5.48966,1.15295 -8.03897,2.05366 -15.28147,2.39862 -23.49845,1.28968 -0.1414,5e-5 -0.28435,5e-5 -0.42876,-6e-5 -0.0767,0.0147 -0.16273,0.0164 -0.25892,-3.3e-4 -5.51863,-0.01 -13.02359,-0.23396 -17.00726,-4.21764 0,0 -0.53033,-0.53033 0,-1.06066 0.53033,-0.53033 1.06066,0 1.06066,0 1.70784,1.70784 4.19026,2.64433 6.87182,3.15789 l 9.1e-4,-0.0366 c 0.21089,-1.24632 0.38491,-2.44128 0.51919,-3.62898 -2.70102,-0.23317 -5.33486,-0.7227 -7.77222,-1.69422 0,0 -0.69636,-0.27854 -0.41782,-0.9749 0.27855,-0.69636 0.9749,-0.41782 0.9749,-0.41782 2.29809,0.92281 4.79483,1.39088 7.36114,1.61409 0.1012,-1.19234 0.16127,-2.3957 0.17735,-3.65454 -3.26629,-0.20804 -6.38123,-0.82724 -8.71413,-2.67754 0,0 -0.58565,-0.46853 -0.11713,-1.05418 0.46852,-0.58565 1.05417,-0.11713 1.05417,-0.11713 1.45624,1.17696 2.96764,1.30067 4.77882,1.55725 1.00673,0.14262 2.01206,0.24985 3.0164,0.33592 0.0365,-1.86018 0.13141,-3.86393 0.10629,-5.87417 -0.70972,-0.032 -1.41987,-0.0695 -2.13092,-0.11337 -2.55812,-0.15773 -5.68033,-0.33317 -7.62658,-2.21822 0,0 -0.53033,-0.53033 0,-1.06066 0.53033,-0.53033 1.06066,0 1.06066,0 1.55219,1.62625 4.58163,1.65027 6.65913,1.78178 0.66528,0.0421 1.32975,0.0782 1.99383,0.10916 -0.16642,-3.47559 -0.82713,-6.86811 -2.9118,-9.46352 0,0 -0.46852,-0.58565 0.11713,-1.05417 0.58565,-0.46852 1.05417,0.11713 1.05417,0.11713 2.3244,2.91595 3.03201,6.65139 3.208,10.46079 2.58627,0.0924 5.17096,0.11488 7.77778,0.11488 0.47761,0 0.95451,-4.7e-4 1.43075,-0.002 -0.11887,-4.04611 -0.8388,-8.1585 -2.6453,-11.1483 0,0 -0.38587,-0.64312 0.25725,-1.02899 0.64312,-0.38587 1.02899,0.25725 1.02899,0.25725 1.93146,3.23877 2.71803,7.61539 2.85011,11.91448 3.53753,-0.0188 7.04272,-0.0803 10.54259,-0.24645 -0.059,-1.03346 -0.13398,-2.06344 -0.2125,-3.08614 -0.19997,-2.6044 -0.23807,-5.56965 -2.21078,-7.52284 0,0 -0.53033,-0.53033 0,-1.06066 0.53033,-0.53033 1.06066,0 1.06066,0 2.4725,2.49304 3.18002,7.09865 3.23292,11.57054 2.89525,-0.16993 5.79015,-0.41904 8.69999,-0.78236 0.0613,-0.0102 0.12257,-0.0205 0.18365,-0.0309 -0.0314,-0.72489 -0.0677,-1.44951 -0.10929,-2.17382 -0.14721,-2.56364 -1.27728,-4.99976 -1.70597,-7.5013 0,0 -0.1233,-0.73979 0.6165,-0.86309 0.73979,-0.1233 0.86309,0.61649 0.86309,0.61649 0.41182,2.55776 1.56489,5.01969 1.72261,7.64156 0.0403,0.66933 0.0754,1.3391 0.10594,2.00924 1.80984,-0.35476 3.52945,-0.80296 5.29597,-1.50957 l 0.46994,-0.15801 c 0,0 0.71151,-0.23717 0.94868,0.47434 0.23717,0.71151 -0.47434,0.94868 -0.47434,0.94868 l -0.3872,0.1277 c -1.92656,0.77062 -3.80702,1.25219 -5.79162,1.63219 0.0529,1.48407 0.0853,2.96961 0.10295,4.45566 2.19131,-0.36522 4.37407,-0.72901 6.57254,-1.09543 l 0.83759,-0.0102 c 0,0 0.75,0 0.75,0.75 0,0.75 -0.75,0.75 -0.75,0.75 l -0.59099,-0.0102 c -2.27745,0.37957 -4.53638,0.75607 -6.80605,1.13434 0.003,0.51813 0.004,1.03628 0.004,1.55443 -0.003,1.40061 -0.18631,2.76773 -0.43305,4.12275 0.60072,-0.0874 1.20195,-0.18155 1.80383,-0.28296 2.57432,-0.73463 4.50527,-2.46413 7.28823,-2.00815 l 0.0196,-0.0102 c 0,0 0.75,0 0.75,0.75 z m -31.67857,4.17857 c -0.76908,0 -1.55116,0.0102 -2.34279,0.0247 -0.37008,1.40035 -0.80166,2.79349 -1.2756,4.23429 3.42093,0.43605 6.64205,0.61228 9.82212,0.52173 0.0141,-0.0589 0.0285,-0.095 0.0285,-0.095 l 0.28571,-0.71428 c 0.54782,-1.36955 1.07511,-2.70764 1.54723,-4.05386 -2.6732,0.0684 -5.35725,0.0824 -8.06516,0.0824 z m 0,-1.5 c 2.8755,0 5.7262,-0.0107 8.56629,-0.0868 0.3108,-0.98968 0.58545,-1.99149 0.81052,-3.02078 -3.52579,0.41171 -7.54011,0.23608 -10.73589,-0.16685 -0.15879,1.12995 -0.36557,2.2202 -0.61191,3.29493 0.66613,-0.0123 1.32395,-0.0204 1.971,-0.0204 z m 18.76616,-6.22449 c -2.08113,0.3408 -3.74105,1.80207 -5.75682,2.40466 -0.64379,0.19245 -1.33258,0.35149 -2.05334,0.48072 -0.21968,1.0934 -0.49397,2.15563 -0.80877,3.20272 3.37992,-0.122 6.74852,-0.35146 10.12974,-0.78114 0.2713,-1.42476 0.47648,-2.86146 0.47303,-4.33247 0,-0.43493 -10e-4,-0.86979 -0.003,-1.30459 -0.65851,0.10976 -1.31847,0.21974 -1.98057,0.3301 z m -10.85551,12.25303 -0.0728,0.18194 c 3.71922,-0.21385 7.41947,-0.79644 11.35699,-1.75899 l 0.13678,-0.68193 c 0.18066,-1.05418 0.4109,-2.10146 0.63306,-3.15087 -3.43805,0.41138 -6.86201,0.63303 -10.29963,0.75113 -0.52496,1.55152 -1.12553,3.08648 -1.75442,4.65873 z m 4.65144,-11.28014 c 2.08209,-0.66373 3.77885,-2.08383 5.95747,-2.45248 0.74038,-0.12339 1.47826,-0.24638 2.21456,-0.36909 -0.0172,-1.48062 -0.0492,-2.96034 -0.10003,-4.43899 -0.009,0.001 -0.0173,0.003 -0.0259,0.004 -2.984,0.3734 -5.95258,0.6279 -8.92181,0.8004 -0.0453,2.487 -0.25886,4.85121 -0.44185,6.69066 -0.006,0.0394 -0.0113,0.0787 -0.0171,0.11803 0.46653,-0.10135 0.91313,-0.21849 1.33464,-0.35286 z m -16.20494,-6.10554 c -2.59172,0 -5.16199,-0.0252 -7.73354,-0.11516 0.0293,2.02014 -0.0506,4.03362 -0.0786,5.92984 2.93204,0.20033 5.85752,0.28036 8.78695,0.59509 0.27299,-1.92287 0.46044,-4.13263 0.47336,-6.41138 -0.48205,0.001 -0.96475,0.002 -1.44817,0.002 z m -8.68878,16.65901 0.002,0.0307 c 2.44356,0.33146 4.96238,0.37604 7.1461,0.38224 0.47414,-1.42336 0.90693,-2.79014 1.28036,-4.15817 -2.59579,0.0562 -5.26782,0.1153 -7.89919,-0.0267 -0.13898,1.23628 -0.31747,2.47896 -0.5292,3.7719 z m 9.4821,-8.75316 c -2.60729,-0.23057 -5.63644,-0.0883 -8.62024,-0.18052 -0.0183,1.26692 -0.0823,2.48293 -0.18611,3.6885 2.71279,0.14322 5.47471,0.0619 8.13719,-0.002 0.27185,-1.14211 0.49832,-2.29963 0.66916,-3.50562 z m 12.605,-1.74622 c 0.21346,-2.12277 0.22316,-4.27258 0.13894,-6.41548 -3.5174,0.16699 -7.04023,0.22942 -10.59517,0.24858 -0.008,2.33295 -0.19405,4.60026 -0.47893,6.60291 3.16434,0.41003 7.35365,0.61604 10.84739,0.13562 0.0311,-0.1894 0.0604,-0.37992 0.0878,-0.57163 z"
       id="path4186"
       inkscape:connector-curvature="0"
       style="fill:#cccccc;stroke:#000000;stroke-width:0.5" />
    <path
       d="m 203.91311,142.24075 c 4.90504,-6.62623 15.66982,-11.15853 29.65835,-11.94163 20.10039,-1.12526 33.00038,6.26791 33.00038,7.11623 0,1.34126 -45.52821,11.83217 -48.5,12.55555 -15.32503,3.73036 -7.251,29.81271 -8.5,30.30159 -3.14286,1.23017 -10.12756,-31.99479 -5.65873,-38.03174 z"
       id="path4188"
       inkscape:connector-curvature="0"
       style="fill:#989898;stroke:none;stroke-width:0" />
    <path
       d="m 225.95272,130.84541 c 2.82915,-0.28895 6.53816,-0.57271 6.53816,-0.57271 l -29.87614,23.04126 c 0,0 -0.3522,-3.17656 -0.0128,-7.4857 0.41769,-5.30227 6.98839,-8.91942 6.98839,-8.91942 0,0 8.77696,-5.28872 16.36234,-6.06343 z"
       id="path4190"
       inkscape:connector-curvature="0"
       style="fill:#b4b4b4;stroke:none;stroke-width:0" />
    <path
       d="m 223.15755,131.38381 -20.66667,15.88889 c 0,0 -0.95891,-6.44725 7.22222,-10.77778 7.80767,-4.13285 13.44445,-5.11111 13.44445,-5.11111 z"
       id="path4192"
       inkscape:connector-curvature="0"
       style="fill:#cccccc;stroke:none;stroke-width:0" />
  </g>
</svg>
